<svg width="202.0602" height="151.3707" x="801.4699" y="561.1293" version="1.1" preserveAspectRatio="none" viewBox="6.6406 -28.1641 39.6289 29.6875">
  <g transform="matrix(1 0 0 1 0 0)" class="companyName8a3207cb-06fe-483d-8c3f-7a4e9ab860d6"><path id="id-8a3207cb-06fe-483d-8c3f-7a4e9ab860d6D6z1nYkh2" d="M12.52-20.06L12.52-20.06Q12.81-20.06 12.81-19.73L12.81-19.73Q12.81-19.61 12.71-19.51L12.71-19.51Q11.07-17.87 8.93-17.87L8.93-17.87Q8.42-17.87 7.79-18.45Q7.17-19.02 7.17-20.12Q7.17-21.21 8.50-22.55Q9.82-23.89 12.20-25.09Q14.57-26.29 18.13-27.23Q21.68-28.16 24.51-28.16Q27.34-28.16 29.16-27.71Q30.98-27.25 32.00-26.57Q33.03-25.90 33.69-25.06L33.69-25.06Q34.80-23.65 34.80-22.20Q34.80-20.74 33.87-19.20Q32.93-17.66 31.44-16.46Q29.94-15.25 28.01-14.22L28.01-14.22Q24.39-12.30 20.27-11.41L20.27-11.41Q20.98-10.68 23.25-7.78Q25.53-4.88 27.41-2.93Q29.30-0.98 30.33-0.98L30.33-0.98L30.98-1.21Q31.19-1.21 31.19-1.04Q31.19-0.88 30.48-0.09Q29.77 0.70 29.24 1.11Q28.71 1.52 27.80 1.52Q26.89 1.52 25.74 0.64Q24.59-0.23 23.22-1.84Q21.86-3.44 20.76-4.85Q19.67-6.27 18.26-8.19Q16.86-10.12 16.33-10.80L16.33-10.80Q16.13-10.49 15.33-9.25Q14.53-8.01 14.16-7.42Q13.79-6.84 13.09-5.71Q12.38-4.59 11.99-3.91L11.99-3.91Q10.92-2.09 10.50-1.19Q10.08-0.29 9.12-0.29L9.12-0.29L8.44-0.31L7.85-0.29Q6.64-0.29 6.64-1.31L6.64-1.31Q6.64-2.07 7.29-3.49Q7.95-4.90 14.24-14.05Q20.53-23.20 21.17-23.82Q21.82-24.43 22.13-24.51L22.13-24.51Q22.36-24.69 22.44-24.69L22.44-24.69L22.79-24.63L23.13-24.69Q23.30-24.69 23.44-24.54Q23.57-24.39 23.63-24.36L23.63-24.36Q24.45-23.75 24.45-23.34Q24.45-22.93 24.25-22.55Q24.04-22.17 23.13-20.84Q22.21-19.51 20.71-17.39Q19.22-15.27 18.55-14.32L18.55-14.32Q20.16-14.39 22.40-15.29Q24.65-16.19 26.61-17.45Q28.57-18.71 29.97-20.19Q31.37-21.66 31.37-22.75L31.37-22.75Q31.37-23.34 30.76-23.82Q30.16-24.30 29.24-24.57L29.24-24.57Q27.40-25.12 25.10-25.12Q22.79-25.12 19.26-24.12Q15.72-23.13 14.10-22.22Q12.48-21.31 11.76-20.67Q11.04-20.04 11.04-19.79L11.04-19.79Q11.04-19.65 11.44-19.65Q11.84-19.65 12.15-19.85Q12.46-20.06 12.52-20.06Z M43.25-4.34Q44.26-4.98 44.55-5.22Q44.84-5.47 45.23-5.80Q45.63-6.13 45.88-6.13L45.88-6.13Q46.27-6.13 46.27-5.24Q46.27-4.36 45.40-3.33Q44.53-2.30 43.24-1.59Q41.95-0.88 40.49-0.35L40.49-0.35Q37.58 0.72 35.54 0.72Q33.50 0.72 31.86-0.62Q30.21-1.95 30.21-4.11Q30.21-6.27 31.29-8.43Q32.36-10.59 34.05-12.22Q35.74-13.85 37.98-14.86Q40.21-15.88 42.40-15.88L42.40-15.88Q43.46-15.88 44.30-15.27Q45.14-14.67 45.14-13.61Q45.14-12.56 44.09-11.08Q43.05-9.61 41.97-9.61L41.97-9.61Q40.72-9.61 40.72-10.80L40.72-10.80Q40.72-11.11 41.31-11.91Q41.89-12.71 41.89-13.00Q41.89-13.28 41.68-13.28L41.68-13.28Q40.61-13.28 39.38-12.54Q38.14-11.80 37.14-10.98Q36.13-10.16 35.23-9.14L35.23-9.14Q33.28-6.93 33.28-4.55L33.28-4.55Q33.28-3.59 33.90-2.90Q34.51-2.21 35.97-2.21Q37.42-2.21 38.89-2.55Q40.35-2.89 41.30-3.29Q42.25-3.69 43.25-4.34Z"></path></g>
</svg>